<svg width="70" height="70" viewBox="0 0 70 70" fill="none" xmlns="http://www.w3.org/2000/svg">
<path d="M54.0885 50.9115C50.8011 54.8552 46.373 57.6839 41.4128 59.0088C36.4526 60.3337 31.2038 60.0897 26.3878 58.3104C21.5719 56.5312 17.4252 53.3039 14.5179 49.0723C11.6106 44.8407 10.0852 39.8125 10.1516 34.6788C10.2179 29.5451 11.8727 24.558 14.8885 20.403C17.9042 16.2479 22.1329 13.1289 26.9932 11.4747C31.8535 9.82054 37.1069 9.71233 42.0312 11.165C46.9555 12.6176 51.3091 15.5598 54.4933 19.5872L53.9241 20.0373C50.8328 16.1275 46.6064 13.2712 41.8259 11.861C37.0454 10.4508 31.9454 10.5558 27.227 12.1617C22.5086 13.7676 18.4034 16.7955 15.4758 20.8292C12.5481 24.8629 10.9416 29.7044 10.8772 34.6882C10.8128 39.672 12.2936 44.5534 15.116 48.6614C17.9385 52.7694 21.964 55.9024 26.6393 57.6297C31.3146 59.3571 36.4102 59.5939 41.2255 58.3077C46.0409 57.0215 50.3397 54.2754 53.531 50.4469L54.0885 50.9115Z" fill="#FFB11B"/>
</svg>
