<svg width="216" height="177" viewBox="0 0 216 177" fill="none" xmlns="http://www.w3.org/2000/svg">
<path d="M157.078 87.2772C158.39 88.0509 158.39 89.9491 157.078 90.7228L127.766 108.006C126.433 108.792 124.75 107.831 124.75 106.284V71.7164C124.75 70.1687 126.433 69.2075 127.766 69.9936L157.078 87.2772Z" fill="white"/>
<path d="M180.996 124.005C173.763 132.681 164.022 138.905 153.109 141.819C142.197 144.734 130.649 144.197 120.054 140.283C109.459 136.369 100.337 129.269 93.9404 119.959C87.5442 110.65 84.1885 99.5875 84.3345 88.2934C84.4805 76.9993 88.121 66.0276 94.7556 56.8865C101.39 47.7454 110.693 40.8837 121.386 37.2444C132.079 33.6052 143.636 33.3671 154.47 36.563C165.303 39.7588 174.881 46.2316 181.886 55.0918L180.634 56.0819C173.833 47.4806 164.535 41.1967 154.018 38.0942C143.501 34.9917 132.281 35.2228 121.9 38.7558C111.52 42.2888 102.489 48.9502 96.0477 57.8243C89.6068 66.6985 86.0726 77.3497 85.9308 88.314C85.7891 99.2783 89.0468 110.017 95.2562 119.055C101.466 128.093 110.322 134.985 120.607 138.785C130.893 142.586 142.103 143.107 152.697 140.277C163.291 137.447 172.748 131.406 179.769 122.983L180.996 124.005Z" fill="white"/>
</svg>
