<svg width="102" height="102" viewBox="0 0 102 102" fill="none" xmlns="http://www.w3.org/2000/svg">
<g filter="url(#filter0_d)">
<rect x="16" y="16" width="62" height="62" rx="31" fill="#F8F8F8"/>
<path d="M38 37V34H40V37H43V39H40V42H38V39H35V37H38ZM41 43V40H44V37H51L52.83 39H56C57.1 39 58 39.9 58 41V53C58 54.1 57.1 55 56 55H40C38.9 55 38 54.1 38 53V43H41ZM48 52C50.76 52 53 49.76 53 47C53 44.24 50.76 42 48 42C45.24 42 43 44.24 43 47C43 49.76 45.24 52 48 52ZM44.8 47C44.8 48.77 46.23 50.2 48 50.2C49.77 50.2 51.2 48.77 51.2 47C51.2 45.23 49.77 43.8 48 43.8C46.23 43.8 44.8 45.23 44.8 47Z" fill="black"/>
</g>
<defs>
<filter id="filter0_d" x="0" y="0" width="102" height="102" filterUnits="userSpaceOnUse" color-interpolation-filters="sRGB">
<feFlood flood-opacity="0" result="BackgroundImageFix"/>
<feColorMatrix in="SourceAlpha" type="matrix" values="0 0 0 0 0 0 0 0 0 0 0 0 0 0 0 0 0 0 127 0"/>
<feOffset dx="4" dy="4"/>
<feGaussianBlur stdDeviation="10"/>
<feColorMatrix type="matrix" values="0 0 0 0 0 0 0 0 0 0 0 0 0 0 0 0 0 0 0.25 0"/>
<feBlend mode="normal" in2="BackgroundImageFix" result="effect1_dropShadow"/>
<feBlend mode="normal" in="SourceGraphic" in2="effect1_dropShadow" result="shape"/>
</filter>
</defs>
</svg>
