<svg width="30" height="8" viewBox="0 0 30 8" fill="none" xmlns="http://www.w3.org/2000/svg">
<path d="M3.99967 0.333313C1.98301 0.333313 0.333008 1.98331 0.333008 3.99998C0.333008 6.01665 1.98301 7.66665 3.99967 7.66665C6.01634 7.66665 7.66634 6.01665 7.66634 3.99998C7.66634 1.98331 6.01634 0.333313 3.99967 0.333313ZM25.9997 0.333313C23.983 0.333313 22.333 1.98331 22.333 3.99998C22.333 6.01665 23.983 7.66665 25.9997 7.66665C28.0163 7.66665 29.6663 6.01665 29.6663 3.99998C29.6663 1.98331 28.0163 0.333313 25.9997 0.333313ZM14.9997 0.333313C12.983 0.333313 11.333 1.98331 11.333 3.99998C11.333 6.01665 12.983 7.66665 14.9997 7.66665C17.0163 7.66665 18.6663 6.01665 18.6663 3.99998C18.6663 1.98331 17.0163 0.333313 14.9997 0.333313Z" fill="black"/>
</svg>
