<svg width="30" height="30" viewBox="0 0 30 30" fill="none" xmlns="http://www.w3.org/2000/svg">
<path d="M26.4753 16.4625C26.5331 15.9937 26.5717 15.5063 26.5717 15C26.5717 14.4937 26.5331 14.0063 26.456 13.5375L29.7153 11.0625C30.0046 10.8375 30.0818 10.425 29.9082 10.1062L26.8224 4.9125C26.6296 4.575 26.2246 4.4625 25.8774 4.575L22.0395 6.075C21.2294 5.475 20.3808 4.9875 19.4358 4.6125L18.8572 0.6375C18.7994 0.2625 18.4715 0 18.0858 0H11.9142C11.5285 0 11.2199 0.2625 11.1621 0.6375L10.5835 4.6125C9.63845 4.9875 8.77057 5.49375 7.97984 6.075L4.14189 4.575C3.79474 4.44375 3.38973 4.575 3.19687 4.9125L0.111079 10.1062C-0.0817823 10.4437 -0.00463738 10.8375 0.303941 11.0625L3.5633 13.5375C3.48616 14.0063 3.4283 14.5125 3.4283 15C3.4283 15.4875 3.46687 15.9937 3.54402 16.4625L0.284655 18.9375C-0.00463784 19.1625 -0.0817823 19.575 0.0917932 19.8937L3.17758 25.0875C3.37044 25.425 3.77545 25.5375 4.1226 25.425L7.96055 23.925C8.77057 24.525 9.61916 25.0125 10.5642 25.3875L11.1428 29.3625C11.2199 29.7375 11.5285 30 11.9142 30H18.0858C18.4715 30 18.7994 29.7375 18.8379 29.3625L19.4165 25.3875C20.3616 25.0125 21.2294 24.5063 22.0202 23.925L25.8581 25.425C26.2053 25.5563 26.6103 25.425 26.8031 25.0875L29.8889 19.8937C30.0818 19.5562 30.0046 19.1625 29.6961 18.9375L26.4753 16.4625ZM15 20.625C11.8178 20.625 9.21415 18.0938 9.21415 15C9.21415 11.9062 11.8178 9.375 15 9.375C18.1822 9.375 20.7859 11.9062 20.7859 15C20.7859 18.0938 18.1822 20.625 15 20.625Z" fill="#FFB11B"/>
</svg>
