<svg width="43" height="22" viewBox="0 0 43 22" fill="none" xmlns="http://www.w3.org/2000/svg">
<path d="M14.56 21L10.27 14.85C10.09 14.87 9.82 14.88 9.46 14.88H4.72V21H0.82V-1.43051e-06H9.46C11.28 -1.43051e-06 12.86 0.299999 14.2 0.899999C15.56 1.5 16.6 2.36 17.32 3.48C18.04 4.6 18.4 5.93 18.4 7.47C18.4 9.05 18.01 10.41 17.23 11.55C16.47 12.69 15.37 13.54 13.93 14.1L18.76 21H14.56ZM14.47 7.47C14.47 6.13 14.03 5.1 13.15 4.38C12.27 3.66 10.98 3.3 9.28 3.3H4.72V11.67H9.28C10.98 11.67 12.27 11.31 13.15 10.59C14.03 9.85 14.47 8.81 14.47 7.47ZM33.2934 21.3C30.3934 21.3 28.1334 20.49 26.5134 18.87C24.8934 17.23 24.0834 14.89 24.0834 11.85V-1.43051e-06H27.9834V11.7C27.9834 15.82 29.7634 17.88 33.3234 17.88C36.8634 17.88 38.6334 15.82 38.6334 11.7V-1.43051e-06H42.4734V11.85C42.4734 14.89 41.6634 17.23 40.0434 18.87C38.4434 20.49 36.1934 21.3 33.2934 21.3Z" fill="#FFB11B"/>
</svg>
