<svg width="30" height="30" viewBox="0 0 30 30" fill="none" xmlns="http://www.w3.org/2000/svg">
<path d="M21.3774 18.8679H20.0263L19.5475 18.4048C21.2235 16.4494 22.2325 13.9108 22.2325 11.1492C22.2325 4.99142 17.2558 0 11.1162 0C4.97666 0 0 4.99142 0 11.1492C0 17.307 4.97666 22.2985 11.1162 22.2985C13.8696 22.2985 16.4007 21.2865 18.3503 19.6055L18.8121 20.0858V21.4408L27.3631 30L29.9112 27.4443L21.3774 18.8679ZM11.1162 18.8679C6.85787 18.8679 3.42038 15.4202 3.42038 11.1492C3.42038 6.87822 6.85787 3.43053 11.1162 3.43053C15.3746 3.43053 18.8121 6.87822 18.8121 11.1492C18.8121 15.4202 15.3746 18.8679 11.1162 18.8679Z" fill="#FFB11B"/>
</svg>
