<svg width="19" height="21" viewBox="0 0 19 21" fill="none" xmlns="http://www.w3.org/2000/svg">
<path d="M16.2083 2.87504H12.2025C11.8 1.76337 10.7458 0.958374 9.5 0.958374C8.25417 0.958374 7.2 1.76337 6.7975 2.87504H2.79167C1.7375 2.87504 0.875 3.73754 0.875 4.79171V18.2084C0.875 19.2625 1.7375 20.125 2.79167 20.125H16.2083C17.2625 20.125 18.125 19.2625 18.125 18.2084V4.79171C18.125 3.73754 17.2625 2.87504 16.2083 2.87504ZM9.5 2.87504C10.0271 2.87504 10.4583 3.30629 10.4583 3.83337C10.4583 4.36046 10.0271 4.79171 9.5 4.79171C8.97292 4.79171 8.54167 4.36046 8.54167 3.83337C8.54167 3.30629 8.97292 2.87504 9.5 2.87504ZM11.4167 16.2917H4.70833V14.375H11.4167V16.2917ZM14.2917 12.4584H4.70833V10.5417H14.2917V12.4584ZM14.2917 8.62504H4.70833V6.70837H14.2917V8.62504Z" fill="#515151"/>
</svg>
