<svg width="401" height="218" viewBox="0 0 401 218" fill="none" xmlns="http://www.w3.org/2000/svg">
<path d="M85.9 217.6C69.3 217.6 53.2 215.4 37.6 211C22.2 206.4 9.8 200.5 0.4 193.3L16.9 156.7C25.9 163.3 36.6 168.6 49 172.6C61.4 176.6 73.8 178.6 86.2 178.6C100 178.6 110.2 176.6 116.8 172.6C123.4 168.4 126.7 162.9 126.7 156.1C126.7 151.1 124.7 147 120.7 143.8C116.9 140.4 111.9 137.7 105.7 135.7C99.7 133.7 91.5 131.5 81.1 129.1C65.1 125.3 52 121.5 41.8 117.7C31.6 113.9 22.8 107.8 15.4 99.4C8.2 91 4.6 79.8 4.6 65.8C4.6 53.6 7.9 42.6 14.5 32.8C21.1 22.8 31 14.9 44.2 9.09999C57.6 3.29999 73.9 0.399996 93.1 0.399996C106.5 0.399996 119.6 1.99999 132.4 5.19999C145.2 8.39999 156.4 13 166 19L151 55.9C131.6 44.9 112.2 39.4 92.8 39.4C79.2 39.4 69.1 41.6 62.5 46C56.1 50.4 52.9 56.2 52.9 63.4C52.9 70.6 56.6 76 64 79.6C71.6 83 83.1 86.4 98.5 89.8C114.5 93.6 127.6 97.4 137.8 101.2C148 105 156.7 111 163.9 119.2C171.3 127.4 175 138.5 175 152.5C175 164.5 171.6 175.5 164.8 185.5C158.2 195.3 148.2 203.1 134.8 208.9C121.4 214.7 105.1 217.6 85.9 217.6ZM400.809 3.99999V214H360.909L256.209 86.5V214H208.209V3.99999H248.409L352.809 131.5V3.99999H400.809Z" fill="#F2F2F2"/>
</svg>
