<svg width="429" height="214" viewBox="0 0 429 214" fill="none" xmlns="http://www.w3.org/2000/svg">
                <path d="M68.6 213.6C54.4 213.6 41.3 211 29.3 205.8C17.5 200.4 7.8 192.8 0.2 183L27.2 150.6C38.6 166 51.6 173.7 66.2 173.7C86 173.7 95.9 162.1 95.9 138.9V39H22.1V-1.43051e-05H144.2V136.2C144.2 162 137.8 181.4 125 194.4C112.2 207.2 93.4 213.6 68.6 213.6ZM383.305 210L383.005 84L321.205 187.8H299.305L237.805 86.7V210H192.205V-1.43051e-05H232.405L311.005 130.5L388.405 -1.43051e-05H428.305L428.905 210H383.305Z" fill="#F2F2F2" />
</svg>
