<svg width="104" height="103" viewBox="0 0 104 103" fill="none" xmlns="http://www.w3.org/2000/svg">
<path d="M80.5862 74.9127C75.7491 80.7155 69.2334 84.8777 61.9348 86.8272C54.6362 88.7767 46.913 88.4177 39.8266 85.7997C32.7403 83.1816 26.6389 78.4329 22.3609 72.2064C18.083 65.9799 15.8385 58.5812 15.9362 51.0274C16.0338 43.4735 18.4687 36.1354 22.9062 30.0215C27.3436 23.9077 33.5658 19.3183 40.7174 16.8843C47.8691 14.4502 55.599 14.291 62.8448 16.4285C70.0906 18.5659 76.4965 22.8952 81.1819 28.8211L80.3443 29.4834C75.7957 23.7305 69.5769 19.5277 62.5427 17.4526C55.5085 15.3776 48.0042 15.5321 41.0615 17.8951C34.1187 20.2581 28.0782 24.7134 23.7703 30.6487C19.4625 36.584 17.0987 43.7079 17.0039 51.0412C16.9091 58.3745 19.088 65.5571 23.241 71.6018C27.394 77.6464 33.3173 82.2564 40.1967 84.798C47.0761 87.3397 54.5738 87.6882 61.6593 85.7956C68.7448 83.9031 75.0701 79.8624 79.766 74.229L80.5862 74.9127Z" fill="white"/>
</svg>
