<svg width="102" height="114" xmlns="http://www.w3.org/2000/svg">

    <filter id="f1" x="0" y="0" width="200%" height="200%">
        <feOffset result="offOut" in="SourceAlpha" dx="2" dy="2"/>
        <feGaussianBlur result="blurOut" in="offOut" stdDeviation="2"/>
        <feBlend in="SourceGraphic" in2="blurOut" />
    </filter>


    <path filter="url(#f1)" d="m97.25526,90.09722c-7.233,8.676 -16.974,14.9 -27.887,17.814c-10.912,2.915 -22.46,2.378 -33.055,-1.536c-10.595,-3.914 -19.717,-11.014 -26.1136,-20.324c-6.3962,-9.309 -9.7519,-20.3715 -9.6059,-31.6656c0.146,-11.2941 3.7865,-22.2658 10.4211,-31.4069c6.6344,-9.1411 15.9374,-16.0028 26.6304,-19.6421c10.693,-3.6392 22.25,-3.8773 33.084,-0.6814c10.833,3.1958 20.411,9.6686 27.416,18.5288l-1.252,0.9901c-6.801,-8.6013 -16.099,-14.8852 -26.616,-17.9877c-10.517,-3.1025 -21.737,-2.8714 -32.118,0.6616c-10.38,3.533 -19.411,10.1944 -25.8523,19.0685c-6.4409,8.8742 -9.9751,19.5254 -10.1169,30.4897c-0.1417,10.9643 3.116,21.703 9.3254,30.741c6.2098,9.038 15.0658,15.93 25.3508,19.73c10.286,3.801 21.496,4.322 32.09,1.492c10.594,-2.83 20.051,-8.871 27.072,-17.294l1.227,1.022z"
          fill="white" id="svg_1"/>
    <path filter="url(#f1)" d="m46.24626,32.09222c-2.762,0 -5,2.239 -5,5l0,35.975c0,2.763 2.238,5 5,5s5,-2.238 5,-5l0,-35.975c0,-2.762 -2.237,-5 -5,-5z"
          fill="white" id="svg_2"/>
    <path filter="url(#f1)" d="m64.24626,32.09222c-2.762,0 -5,2.239 -5,5l0,35.975c0,2.762 2.238,5 5,5s5,-2.238 5,-5l0,-35.975c0,-2.761 -2.238,-5 -5,-5z"
          fill="white" id="svg_3"/>

</svg>